<svg style="display: none;"
    xmlns="http://www.w3.org/2000/svg">

    <symbol id="third-section__list-svg" viewBox="0 0 21 21">
        <path d="M10.1215 0.549316C4.60746 0.549316 0.12146 5.03532 0.12146 10.5493C0.12146 16.0633 4.60746 20.5493 10.1215 20.5493C15.6355 20.5493 20.1215 16.0633 20.1215 10.5493C20.1215 5.03532 15.6355 0.549316 10.1215 0.549316ZM8.12246 14.9623L5.11691 11.9632C4.72616 11.5733 4.72537 10.9405 5.11515 10.5496C5.50517 10.1585 6.13847 10.1578 6.52939 10.548L8.12046 12.1363L12.7075 7.54932C13.0979 7.15885 13.731 7.15885 14.1215 7.54932C14.5119 7.93978 14.5119 8.57285 14.1215 8.96332L8.12246 14.9623Z" fill="#2FAB73"/>
    </symbol>

    <symbol id="fourth-section__list-svg" viewBox="0 0 14 10">
        <path d="M5.4487 9.27956C5.31743 9.27983 5.1874 9.25417 5.06608 9.20406C4.94475 9.15395 4.83452 9.08038 4.7417 8.98756L0.499696 4.74456C0.404122 4.65238 0.327864 4.54209 0.27537 4.42013C0.222877 4.29816 0.1952 4.16696 0.193953 4.03418C0.192706 3.9014 0.217915 3.76971 0.268109 3.64678C0.318303 3.52385 0.392477 3.41214 0.486302 3.31819C0.580128 3.22423 0.691726 3.1499 0.814585 3.09953C0.937444 3.04916 1.0691 3.02377 1.20188 3.02482C1.33466 3.02588 1.4659 3.05337 1.58794 3.1057C1.70998 3.15802 1.82038 3.23412 1.9127 3.32956L5.44769 6.86456L11.8127 0.501562C12.0002 0.313921 12.2546 0.208453 12.5198 0.208359C12.7851 0.208265 13.0396 0.313553 13.2272 0.501061C13.4148 0.68857 13.5203 0.942938 13.5204 1.20821C13.5205 1.47348 13.4152 1.72792 13.2277 1.91556L6.15569 8.98756C6.06287 9.08038 5.95264 9.15395 5.83131 9.20406C5.70999 9.25417 5.57996 9.27983 5.4487 9.27956Z" fill="#2FAB73"/>
    </symbol>

    <symbol id="seventh-section__slide-rating-svg" viewBox="0 0 14 14">
        <path d="M13.1891 5.41802L9.22187 4.84146L7.44844 1.24615C7.4 1.14771 7.32031 1.06802 7.22187 1.01959C6.975 0.897711 6.675 0.999273 6.55156 1.24615L4.77812 4.84146L0.810936 5.41802C0.701561 5.43365 0.601561 5.48521 0.524999 5.56334C0.432439 5.65847 0.381434 5.78646 0.383192 5.91918C0.38495 6.0519 0.439327 6.1785 0.534374 6.27115L3.40469 9.06959L2.72656 13.0211C2.71066 13.1131 2.72083 13.2076 2.75592 13.294C2.79102 13.3805 2.84963 13.4554 2.92511 13.5102C3.00059 13.565 3.08992 13.5976 3.18297 13.6042C3.27602 13.6108 3.36907 13.5913 3.45156 13.5477L7 11.6821L10.5484 13.5477C10.6453 13.5993 10.7578 13.6165 10.8656 13.5977C11.1375 13.5508 11.3203 13.293 11.2734 13.0211L10.5953 9.06959L13.4656 6.27115C13.5437 6.19459 13.5953 6.09459 13.6109 5.98521C13.6531 5.71177 13.4625 5.45865 13.1891 5.41802Z" fill="#FEA250"/>
    </symbol>

    <symbol id="seventh-section__arrow-svg" viewBox="0 0 20 18">
        <path d="M18.75 8.00291H3.925L8.4625 2.55291C8.67467 2.29764 8.77675 1.96854 8.74628 1.638C8.7158 1.30747 8.55527 1.00258 8.3 0.790408C8.04473 0.578235 7.71563 0.476157 7.3851 0.506632C7.05456 0.537107 6.74967 0.697637 6.5375 0.952908L0.2875 8.45291C0.245451 8.51256 0.207849 8.57523 0.175 8.64041C0.175 8.70291 0.175 8.74041 0.0875002 8.80291C0.0308421 8.94623 0.0011764 9.0988 0 9.25291C0.0011764 9.40702 0.0308421 9.55958 0.0875002 9.70291C0.0875002 9.76541 0.0874998 9.80291 0.175 9.86541C0.207849 9.93058 0.245451 9.99325 0.2875 10.0529L6.5375 17.5529C6.65503 17.694 6.8022 17.8075 6.96856 17.8853C7.13491 17.963 7.31636 18.0032 7.5 18.0029C7.79207 18.0035 8.07511 17.9018 8.3 17.7154C8.42657 17.6105 8.5312 17.4816 8.60789 17.3362C8.68458 17.1907 8.73183 17.0316 8.74692 16.8679C8.76202 16.7042 8.74466 16.5391 8.69586 16.3821C8.64705 16.2251 8.56775 16.0792 8.4625 15.9529L3.925 10.5029H18.75C19.0815 10.5029 19.3995 10.3712 19.6339 10.1368C19.8683 9.90237 20 9.58443 20 9.25291C20 8.92139 19.8683 8.60345 19.6339 8.36902C19.3995 8.1346 19.0815 8.00291 18.75 8.00291Z"/>
    </symbol>


</svg>